<svg xmlns="http://www.w3.org/2000/svg" viewBox="0 0 247.71 182.82"><defs><style>.cls-1{isolation:isolate;}.cls-2{fill:#79a4e9;}.cls-3{fill:#ffc328;}.cls-4{fill:#a5c3f1;}.cls-5{fill:#1058c1;}.cls-6{fill:#f78e36;}.cls-7{opacity:0.25;mix-blend-mode:overlay;}.cls-8{fill:#fff;}.cls-9{fill:#1c67da;}</style></defs><g class="cls-1"><g id="Layer_2" data-name="Layer 2"><g id="Layer_1-2" data-name="Layer 1"><path class="cls-2" d="M214.73,53a6.15,6.15,0,1,1-6.14-6.15A6.16,6.16,0,0,1,214.73,53Zm-10.37,0a4.22,4.22,0,1,0,4.23-4.22A4.23,4.23,0,0,0,204.36,53Z"/><path class="cls-3" d="M221,21.74a6.15,6.15,0,1,1-6.15-6.15A6.16,6.16,0,0,1,221,21.74Zm-10.37,0a4.22,4.22,0,1,0,4.22-4.22A4.22,4.22,0,0,0,210.63,21.74Z"/><path class="cls-2" d="M233.56,6.94a1,1,0,0,1-1,1h-4.26a1,1,0,0,1,0-1.93h4.26A1,1,0,0,1,233.56,6.94Z"/><path class="cls-2" d="M241,6.94a1,1,0,0,1-1,1h-4.25a1,1,0,1,1,0-1.93H240A1,1,0,0,1,241,6.94Z"/><path class="cls-2" d="M235.16,1V4.79a1,1,0,0,1-1.93,0V1a1,1,0,0,1,1.93,0Z"/><path class="cls-2" d="M235.16,9.09v3.82a1,1,0,0,1-1.92,0V9.09a1,1,0,1,1,1.93,0Z"/><path class="cls-3" d="M226.61,39.78a1,1,0,0,1-1,1h-4.26a1,1,0,1,1,0-1.92h4.25A1,1,0,0,1,226.61,39.78Z"/><path class="cls-3" d="M234.06,39.78a1,1,0,0,1-1,1h-4.25a1,1,0,0,1,0-1.93h4.25A1,1,0,0,1,234.06,39.78Z"/><path class="cls-3" d="M228.21,33.81v3.82a1,1,0,1,1-1.93,0V33.81a1,1,0,0,1,1.93,0Z"/><path class="cls-3" d="M228.21,41.93v3.82a1,1,0,1,1-1.93,0V41.93a1,1,0,0,1,1.93,0Z"/><path class="cls-3" d="M12.3,161a6.15,6.15,0,1,1-6.15-6.16A6.15,6.15,0,0,1,12.3,161Zm-1.93,0a4.22,4.22,0,1,0-4.22,4.22A4.23,4.23,0,0,0,10.37,161Z"/><path class="cls-4" d="M37.41,152.67a6.15,6.15,0,1,1-6.15-6.16A6.15,6.15,0,0,1,37.41,152.67Zm-1.93,0a4.22,4.22,0,1,0-4.22,4.21A4.23,4.23,0,0,0,35.48,152.67Z"/><path class="cls-3" d="M38.2,126.26a1,1,0,0,0-1,1v4.25a1,1,0,0,0,1,1,1,1,0,0,0,1-1v-4.25A1,1,0,0,0,38.2,126.26Z"/><path class="cls-3" d="M38.2,118.82a1,1,0,0,0-1,1V124a1,1,0,0,0,1.93,0v-4.26A1,1,0,0,0,38.2,118.82Z"/><path class="cls-3" d="M44.17,124.67H40.35a1,1,0,0,0,0,1.93h3.82a1,1,0,1,0,0-1.93Z"/><path class="cls-3" d="M36.05,124.67H32.23a1,1,0,0,0,0,1.93h3.82a1,1,0,1,0,0-1.93Z"/><path class="cls-5" d="M12.13,133.07a1,1,0,0,0-1,1v4.26a1,1,0,0,0,1.93,0V134A1,1,0,0,0,12.13,133.07Z"/><path class="cls-5" d="M12.13,125.62a1,1,0,0,0-1,1v4.25a1,1,0,0,0,1,1,1,1,0,0,0,1-1v-4.25A1,1,0,0,0,12.13,125.62Z"/><path class="cls-5" d="M18.1,131.48H14.28a1,1,0,1,0,0,1.92H18.1a1,1,0,1,0,0-1.93Z"/><path class="cls-5" d="M10,131.47H6.16a1,1,0,1,0,0,1.93H10a1,1,0,0,0,0-1.93Z"/><path class="cls-6" d="M216.34,127a19.76,19.76,0,0,0,13-3l1.27-5.43-8.14-1.9-2.55,1.12Z"/><path class="cls-6" d="M193.31,146s13.43,1.51,22-1.1l-3.2-6.23-19.32,2.06Z"/><path class="cls-3" d="M97.91,60.93c9.62-2.68,19.43-3.22,28.58,1.41,5,2.54,9.31,6.32,14.08,9.32,9.77,6.13,21.27,8.81,32.57,11.13,10.72,2.2,21.58,4,32.54,4.27,5.17.13,10.73.2,15.8-.78,5.76-1.11,11.45-2.42,17.3-3a12,12,0,0,1,5.91.43c1.84.77,3.34,2.71,3,4.67a1.76,1.76,0,0,1-.61,1.11,8,8,0,0,1-1.46.56c-1.33.66-1.26,2.53-1.51,4-.52,3.08-3.18,5.31-5.88,6.89-1.83,1.07-3.9,2.1-4.82,4-1.18,2.42-.37,5.67.26,8.14,2,7.66-.73,13.59-4.29,11s-8.86-4.69-10.05,6.23c-.87,8.08,1.37,14.91-5.73,14.68s-8.7-8.05-13.07,2.09-8.74,11.4-16.66,11.26c-9.22-.17-9.52,4.41-14.52,5.76-5.95,1.6-39.55,2.74-66.8-53.14C102.51,110.94,78.94,66.21,97.91,60.93Z"/><path class="cls-7" d="M244.69,83.67a12,12,0,0,0-5.91-.43c-5.85.62-11.54,1.93-17.3,3-5.07,1-10.63.91-15.8.78-11-.27-21.82-2.07-32.54-4.27-11.3-2.32-22.8-5-32.57-11.13-4.77-3-9-6.78-14.08-9.32-8.55-4.33-17.67-4.13-26.67-1.91a141.44,141.44,0,0,1,15.84,4.9c13,4.88,24,13.5,35.77,20.72,12.41,7.63,27.07,11.31,41.5,12.37,14.8,1.09,29.67-.51,44.3-3a22.5,22.5,0,0,0,6.93-2c.17-1.34.27-2.82,1.42-3.39a8,8,0,0,0,1.46-.56,1.76,1.76,0,0,0,.61-1.11C248,86.38,246.53,84.44,244.69,83.67Z"/><path class="cls-7" d="M221.25,123.69c2.17-3.06,5.51-1.5,8.09.37,3.18,2.31,5.67-2.2,4.76-8.67a217.22,217.22,0,0,1-53.83-5.4C189.29,114,208,119.8,221.25,123.69Z"/><path class="cls-7" d="M218.87,139.88c-24.19-3.86-46.08-15-46.08-15,11.28,7.84,21.63,14.34,29.37,19,3.25-4.89,5.28.94,11.4,1.14C217.48,145.1,218.55,143.08,218.87,139.88Z"/><path class="cls-7" d="M188.05,158.19c-29.45-13.6-44.62-35.09-44.62-35.09,7.62,14.21,23,28.43,32.93,36.69a14.69,14.69,0,0,1,7.47-1.47A35.48,35.48,0,0,0,188.05,158.19Z"/><path class="cls-8" d="M121.51,81.42q5.11,41.9,10.19,83.8c.51,4.22,1,8.7-.78,12.57a5.36,5.36,0,0,1-2.84,3,4.61,4.61,0,0,1-4.54-1.24,12.4,12.4,0,0,1-2.61-4.18c-5.91-13.42-9.14-27.86-15.17-41.25a6.3,6.3,0,0,0-2.51-3.3c-4.08-2.06-6.73,3.59-7.69,6.47q-4.8,14.35-8.83,29c-1.32,4.79-2.71,9.84-6.25,13.33a5.47,5.47,0,0,1-4,1.9c-2.49-.17-3.93-2.92-4.44-5.37-.86-4.12-.47-8.4-.08-12.59q3.85-41.06,7.83-82.11"/><path class="cls-9" d="M121.51,81.42c2,13.34,3.73,26.69,5.61,40l5.29,40.07a80.06,80.06,0,0,1,1,10.22,17.18,17.18,0,0,1-.84,5.36,11,11,0,0,1-1.22,2.58,6.07,6.07,0,0,1-2.35,2.15,5,5,0,0,1-3.33.34,6.55,6.55,0,0,1-2.79-1.42,12.7,12.7,0,0,1-3.12-4.66c-1.39-3.11-2.64-6.27-3.81-9.46-2.34-6.36-4.32-12.81-6.54-19.14-1.11-3.16-2.27-6.29-3.54-9.37-.31-.77-.65-1.53-1-2.29s-.66-1.55-1-2.18a3.8,3.8,0,0,0-1.12-1.38A3.18,3.18,0,0,0,102,132l-.36-.07h-.34c-.88.06-2,1.07-2.73,2.32a18.78,18.78,0,0,0-1.89,4.29q-1.6,4.77-3.11,9.58c-2,6.41-3.91,12.85-5.73,19.33a38.57,38.57,0,0,1-3.8,9.74,16.26,16.26,0,0,1-1.59,2.21,12.86,12.86,0,0,1-2,2,6.85,6.85,0,0,1-2.8,1.36,4.73,4.73,0,0,1-3.35-.53A6.37,6.37,0,0,1,72.13,180,10.75,10.75,0,0,1,71,177.33a23.49,23.49,0,0,1-.71-5.3,77.94,77.94,0,0,1,.67-10.24l4.25-40.2c1.53-13.39,3-26.79,4.57-40.17-.94,13.45-2.07,26.87-3.1,40.31L73.24,162a76,76,0,0,0-.46,9.92,22,22,0,0,0,.68,4.69,5.58,5.58,0,0,0,2.17,3.29,2.15,2.15,0,0,0,1.53.22,4.15,4.15,0,0,0,1.69-.87,13.65,13.65,0,0,0,2.89-3.5,36.6,36.6,0,0,0,3.41-9.08c1.75-6.51,3.66-13,5.66-19.44q1.5-4.84,3.09-9.65a22.31,22.31,0,0,1,2.18-4.94A11,11,0,0,1,98,130.37a5.63,5.63,0,0,1,3.06-1.45c.31,0,.62,0,.92,0s.6.1.89.17a6.15,6.15,0,0,1,1.58.71,6.68,6.68,0,0,1,2.09,2.45c.46.86.76,1.62,1.11,2.41s.68,1.56,1,2.35c1.3,3.15,2.47,6.34,3.58,9.54,2.2,6.4,4.19,12.83,6.43,19.14,1.12,3.15,2.32,6.27,3.64,9.32a10.26,10.26,0,0,0,2.36,3.73,3.13,3.13,0,0,0,3.26.74,5.37,5.37,0,0,0,2.27-3.2,15.25,15.25,0,0,0,.77-4.57,77.06,77.06,0,0,0-.78-9.89l-4.46-40.18C124.28,108.23,122.8,94.84,121.51,81.42Z"/><path class="cls-8" d="M122.16,82.1l12.72,12.63a8.48,8.48,0,0,1,2,2.57c.9,2.21-.24,4.7-1.57,6.68-4.24,6.33-10.66,11.21-13.7,18.19-.66,1.53-1.14,3.34-.34,4.8a4.18,4.18,0,0,0,4.28,1.84,10.42,10.42,0,0,0,4.46-2.07c6.74-4.69,12.11-11,17.17-17.39s7.23-13.39,2.33-20.72c-4-5.93-9.8-10.17-15.18-14.71-4.66-3.92-9-8.29-13.46-12.38,0,0,17.23-7.95,14.58-27.83-2-14.58-15.1-24.75-29.57-24.2a33.42,33.42,0,0,0-17.6,6,30.06,30.06,0,0,0-12.55,18C73.44,44,78.74,55.57,89,59.55c-.71-.27-3.13,1.16-3.82,1.47-1.39.62-2.77,1.29-4.12,2a95.76,95.76,0,0,0-8.25,5c-5.29,3.51-10.35,7.37-15.6,11a1,1,0,0,1-.59.24c-.34,0-.58-.32-.77-.6-5.33-8.1-10.89-16-16.39-24a20.47,20.47,0,0,0-3.73-4.45,6.91,6.91,0,0,0-5.39-1.69,6.49,6.49,0,0,0-4.91,5.46c-.53,3.27.9,6.45,2.62,9.14C34.44,73,40.9,82.8,47.29,92.69c0,0,3.31,7.29,11.93,4S79.76,81.42,79.76,81.42"/><path class="cls-9" d="M122.16,82.1c4.57,4.43,9.18,8.79,13.73,13.28a5.93,5.93,0,0,1,1.35,2.09,5.18,5.18,0,0,1,.19,2.5,11.52,11.52,0,0,1-2,4.47,74.88,74.88,0,0,1-6,7.48,54.65,54.65,0,0,0-5.73,7.49,21.25,21.25,0,0,0-2,4.16c-.43,1.41-.35,2.9.63,3.72a4.08,4.08,0,0,0,3.82.6,13.21,13.21,0,0,0,3.9-2.21,56,56,0,0,0,7.08-6.17c2.21-2.24,4.28-4.62,6.28-7.07q1.5-1.84,3-3.72a30,30,0,0,0,2.55-3.83,15.48,15.48,0,0,0,2.17-8.56,15.17,15.17,0,0,0-3.34-8.14c-3.69-5-8.77-8.74-13.7-12.8S124.66,66.73,120,62.51l-1.42-1.28,1.75-.87A27.31,27.31,0,0,0,124,58a29.93,29.93,0,0,0,3.31-3,25.39,25.39,0,0,0,4.93-7.24,23.12,23.12,0,0,0,2-8.51c0-.73.08-1.47.06-2.2l-.17-2.21c0-.37,0-.74-.1-1.11l-.2-1.08a15.89,15.89,0,0,0-.48-2.15,26,26,0,0,0-9.84-14.2,28.39,28.39,0,0,0-7.81-4A27.82,27.82,0,0,0,107,11C95.26,11,83.49,18.2,78.68,29a23.7,23.7,0,0,0-2.05,8.45A23.05,23.05,0,0,0,77.94,46,20.34,20.34,0,0,0,89.53,58.29l-1,2.53c.34.11.29,0,.23.06l-.31.09c-.25.09-.54.21-.83.34-.6.28-1.12.57-1.88.94L82.11,64c-2.42,1.22-4.76,2.63-7.07,4.1-4.6,2.95-9,6.23-13.57,9.42l-3.42,2.38a3,3,0,0,1-.73.4,1.87,1.87,0,0,1-1.53-.11A3.4,3.4,0,0,1,54.67,79l-1.15-1.72-4.63-6.87L39.65,56.67c-1.57-2.28-3-4.68-5-6.11a6.2,6.2,0,0,0-3.29-1.23,4.35,4.35,0,0,0-3.1,1.19,6.28,6.28,0,0,0-1.8,3,8.25,8.25,0,0,0,0,3.7,14.24,14.24,0,0,0,1.37,3.64c.61,1.17,1.38,2.31,2.12,3.49l17.75,28v0l0,0a8.83,8.83,0,0,0,3.08,3.43,7.8,7.8,0,0,0,4.47,1.2A12.32,12.32,0,0,0,60,96a32.61,32.61,0,0,0,4.34-2.27,83.29,83.29,0,0,0,8-5.76q3.85-3.1,7.45-6.52C77.44,83.77,75,86,72.5,88.18a76.2,76.2,0,0,1-7.91,6,33.06,33.06,0,0,1-4.37,2.41,12.82,12.82,0,0,1-4.89,1.3,8.57,8.57,0,0,1-5-1.21,9.77,9.77,0,0,1-3.53-3.79l0,.07L28.56,65.3c-1.5-2.25-3.17-4.73-3.83-7.64a10.14,10.14,0,0,1,0-4.52,8,8,0,0,1,2.3-4,6.28,6.28,0,0,1,4.44-1.75,8.24,8.24,0,0,1,4.4,1.53A14.66,14.66,0,0,1,39,52c.87,1.15,1.63,2.29,2.42,3.42L50.86,69.1l4.73,6.82,1.18,1.71c.2.32.41.52.22.36a.71.71,0,0,0-.53,0c-.09,0,0,0,.16-.11L60,75.46c4.48-3.19,8.93-6.52,13.62-9.55a83.36,83.36,0,0,1,7.25-4.26l3.8-1.86c.49-.23,1.18-.62,1.83-.92a11.2,11.2,0,0,1,1.09-.45,4.35,4.35,0,0,1,.68-.19,2,2,0,0,1,.49-.06,1.26,1.26,0,0,1,.32,0,3.63,3.63,0,0,1,.45.1l-1,2.53A23.07,23.07,0,0,1,75.32,47a25.56,25.56,0,0,1-1.52-9.65A26.63,26.63,0,0,1,76,27.84,33.07,33.07,0,0,1,88.67,13.43,33.81,33.81,0,0,1,107,8a30.6,30.6,0,0,1,9.58,1.55,31.06,31.06,0,0,1,8.6,4.48A28.76,28.76,0,0,1,136,29.86a17.42,17.42,0,0,1,.53,2.38l.21,1.2c.05.4.07.8.1,1.21l.18,2.41c0,.81-.06,1.63-.08,2.44a25.81,25.81,0,0,1-2.29,9.44,28,28,0,0,1-5.49,8,29.59,29.59,0,0,1-7.8,5.8l.32-2.15c4.74,4.32,9.18,8.85,14,12.89s10,8,13.9,13.4a17.38,17.38,0,0,1,3.64,9.33,17.63,17.63,0,0,1-2.55,9.65,31.65,31.65,0,0,1-2.78,4.06c-1,1.25-2,2.48-3,3.71-2.06,2.45-4.19,4.84-6.48,7.1A58.76,58.76,0,0,1,131,127a14.77,14.77,0,0,1-4.4,2.38,5.47,5.47,0,0,1-5.19-1,4,4,0,0,1-1.25-2.52,6.51,6.51,0,0,1,.32-2.63,21.59,21.59,0,0,1,2.19-4.41,55.57,55.57,0,0,1,6-7.51,74.78,74.78,0,0,0,6.1-7.27,10.74,10.74,0,0,0,2-4.14,4.43,4.43,0,0,0-.11-2.2,5.25,5.25,0,0,0-1.18-1.91Z"/><path class="cls-3" d="M96.33,67.51H107a41,41,0,0,0-2.54,5.9c-1,2.84-.15,5.75.34,8.59.54,3.2,1.09,6.39,1.64,9.59a13.26,13.26,0,0,1,.28,3.71c-.38,3.34-3.14,5.82-5.71,8-3-1.41-6.36-3.3-6.9-6.56a10.25,10.25,0,0,1,.65-4.6q1.4-4.65,2.78-9.3c.47-1.61,1-3.22,1.42-4.84.42-1.44.81-2.36.2-3.83Q97.72,70.83,96.33,67.51Z"/></g></g></g></svg>